<svg width="75" height="48" viewBox="0 0 75 48" fill="none" xmlns="http://www.w3.org/2000/svg">
<g clip-path="url(#clip0_9_1778)">
<path fill-rule="evenodd" clip-rule="evenodd" d="M35.8533 8.80482L29.1969 2.14834C26.3325 -0.716112 21.6675 -0.716112 18.8031 2.14834L2.14834 18.8031C-0.716112 21.6675 -0.716112 26.3325 2.14834 29.1969L18.8031 45.8517C21.6675 48.7161 26.3325 48.7161 29.1969 45.8517L35.8533 39.1952C39.9454 43.6009 45.7834 46.37 52.2625 46.37C64.6205 46.37 74.6325 36.3581 74.6325 24C74.6325 11.6419 64.6205 1.63001 52.2625 1.63001C45.7698 1.63001 39.9317 4.39905 35.8533 8.80482ZM35.8533 8.80482C32.1568 12.7878 29.8926 18.1347 29.8926 24C29.8926 29.8653 32.1432 35.2122 35.8533 39.1952L45.8516 29.1969C48.716 26.3325 48.716 21.6675 45.8516 18.8031L35.8533 8.80482Z" fill="#0A0132"/>
</g>
<defs>
<clipPath id="clip0_9_1778">
<rect width="75" height="48" fill="white"/>
</clipPath>
</defs>
</svg>
