<svg width="177" height="41" viewBox="0 0 177 41" fill="none" xmlns="http://www.w3.org/2000/svg">
<path d="M76.2508 4.87949H86.4153C88.0288 4.87949 89.456 5.20218 90.6971 5.84754C91.963 6.46809 92.9435 7.36167 93.6385 8.5283C94.3335 9.69492 94.681 11.0353 94.681 12.5494C94.681 14.0139 94.2963 15.3543 93.5268 16.5706C92.7573 17.7868 91.7148 18.7176 90.3992 19.363L97.3245 30.9424H91.4418L85.3728 20.2566H81.3145V30.9424H76.2508V4.87949ZM85.559 15.9376C86.8001 15.9376 87.7805 15.6273 88.5004 15.0068C89.245 14.3862 89.6174 13.5671 89.6174 12.5494C89.6174 11.5317 89.245 10.725 88.5004 10.1293C87.7805 9.50876 86.8001 9.19849 85.559 9.19849H81.3145V15.9376H85.559ZM105.707 31.2402C103.647 31.2402 101.971 30.6197 100.681 29.3786C99.39 28.1127 98.7446 26.3876 98.7446 24.2033V12.1771H103.473V23.198C103.473 24.4142 103.796 25.3699 104.441 26.0649C105.087 26.7599 105.968 27.1074 107.085 27.1074C108.549 27.1074 109.703 26.5117 110.547 25.3202C111.391 24.104 111.813 22.4285 111.813 20.2938V12.1771H116.542V30.9424H111.813V28.4106C111.267 29.2297 110.46 29.9123 109.393 30.4584C108.326 30.9796 107.097 31.2402 105.707 31.2402ZM120.711 4.58163H125.44V30.9424H120.711V4.58163ZM129.62 12.1771H134.348V30.9424H129.62V12.1771ZM131.965 9.45912C131.121 9.45912 130.426 9.19849 129.88 8.67723C129.334 8.13115 129.061 7.46096 129.061 6.66666C129.061 5.84754 129.334 5.17735 129.88 4.6561C130.426 4.11002 131.121 3.83698 131.965 3.83698C132.809 3.83698 133.504 4.11002 134.05 4.6561C134.596 5.17735 134.869 5.84754 134.869 6.66666C134.869 7.46096 134.596 8.13115 134.05 8.67723C133.504 9.19849 132.809 9.45912 131.965 9.45912ZM147.352 31.2402C145.465 31.2402 143.778 30.8307 142.288 30.0116C140.799 29.1676 139.632 28.0134 138.788 26.5489C137.944 25.0596 137.522 23.3841 137.522 21.5225C137.522 19.6609 137.944 17.9978 138.788 16.5333C139.632 15.0688 140.799 13.927 142.288 13.1079C143.778 12.2888 145.465 11.8792 147.352 11.8792C149.238 11.8792 150.926 12.2888 152.416 13.1079C153.905 13.927 155.071 15.0688 155.915 16.5333C156.759 17.9978 157.181 19.6609 157.181 21.5225C157.181 23.3841 156.759 25.0596 155.915 26.5489C155.071 28.0134 153.905 29.1676 152.416 30.0116C150.926 30.8307 149.238 31.2402 147.352 31.2402ZM147.352 27.2191C148.841 27.2191 150.057 26.6979 151.001 25.6553C151.944 24.588 152.416 23.2104 152.416 21.5225C152.416 19.8594 151.944 18.5067 151.001 17.4641C150.057 16.4216 148.841 15.9004 147.352 15.9004C145.863 15.9004 144.646 16.4216 143.703 17.4641C142.76 18.5067 142.288 19.8594 142.288 21.5225C142.288 23.2104 142.76 24.588 143.703 25.6553C144.646 26.6979 145.863 27.2191 147.352 27.2191Z" fill="#0B0132"/>
<g clip-path="url(#clip0_54_1571)">
<path fill-rule="evenodd" clip-rule="evenodd" d="M30.4261 7.47202L24.7773 1.82314C22.3465 -0.607713 18.3877 -0.607713 15.9568 1.82314L1.82314 15.9568C-0.607713 18.3877 -0.607713 22.3465 1.82314 24.7773L15.9568 38.911C18.3877 41.3419 22.3465 41.3419 24.7773 38.911L30.4261 33.2621C33.8988 37.001 38.8531 39.3509 44.3514 39.3509C54.8388 39.3509 63.3352 30.8545 63.3352 20.3671C63.3352 9.87968 54.8388 1.38327 44.3514 1.38327C38.8415 1.38327 33.8872 3.73316 30.4261 7.47202ZM30.4261 7.47202C27.2892 10.8521 25.3677 15.3896 25.3677 20.3671C25.3677 25.3445 27.2776 29.8821 30.4261 33.2621L38.9109 24.7773C41.3418 22.3465 41.3418 18.3877 38.9109 15.9568L30.4261 7.47202Z" fill="#0A0132"/>
</g>
<defs>
<clipPath id="clip0_54_1571">
<rect width="63.6471" height="40.7341" fill="white"/>
</clipPath>
</defs>
</svg>
