<svg width="32" height="32" viewBox="0 0 32 32" fill="none" xmlns="http://www.w3.org/2000/svg">
<path d="M16.4988 9.5268C12.6535 9.5268 9.52556 12.6548 9.52556 16.5C9.52556 20.3452 12.6535 23.4732 16.4988 23.4732C20.344 23.4732 23.472 20.3452 23.472 16.5C23.472 12.6548 20.344 9.5268 16.4988 9.5268ZM16.4988 21.4809C13.7518 21.4809 11.5179 19.2469 11.5179 16.5C11.5179 13.7531 13.7518 11.5191 16.4988 11.5191C19.2457 11.5191 21.4796 13.7531 21.4796 16.5C21.4796 19.2469 19.2457 21.4809 16.4988 21.4809Z" fill="#0A0132"/>
<path d="M29.7976 19.2893L27.9448 16.8225C27.9485 16.6021 27.9448 16.3693 27.941 16.1825L29.7976 13.7107C29.9819 13.4654 30.0429 13.1491 29.9633 12.8528C29.6519 11.6985 29.1912 10.5877 28.5948 9.55171C28.4416 9.28648 28.1751 9.10592 27.8725 9.06234L24.818 8.62651C24.6736 8.47584 24.5242 8.32766 24.3722 8.18073L23.9364 5.12622C23.8928 4.82363 23.7135 4.55716 23.4483 4.40399C22.4123 3.80505 21.3003 3.34432 20.1447 3.03426C19.8484 2.95457 19.5333 3.01558 19.288 3.19987L16.83 5.04652C16.6096 5.03781 16.3892 5.03781 16.1675 5.04652L13.7095 3.20112C13.4642 3.01683 13.1479 2.95581 12.8515 3.0355C11.6972 3.34681 10.5865 3.80754 9.55046 4.40399C9.28523 4.55716 9.10468 4.82363 9.06109 5.12622L8.62402 8.18571C8.47584 8.33015 8.32891 8.47709 8.18446 8.62527L5.12497 9.06234C4.82239 9.10592 4.55591 9.28523 4.40275 9.55046C3.80629 10.5877 3.34556 11.6997 3.03426 12.8553C2.95457 13.1516 3.01558 13.4667 3.19987 13.712L5.05275 16.1787C5.04901 16.3991 5.05275 16.632 5.05649 16.8188L3.19987 19.2893C3.01558 19.5346 2.95457 19.8509 3.03426 20.1472C3.34556 21.3015 3.80629 22.4123 4.40275 23.4483C4.55591 23.7135 4.82239 23.8941 5.12497 23.9377L8.18446 24.3747C8.32891 24.5229 8.47584 24.6698 8.62402 24.8143L9.06109 27.8738C9.10468 28.1764 9.28399 28.4428 9.54922 28.596C10.5852 29.195 11.6972 29.6557 12.8515 29.9657C12.9362 29.9882 13.0234 29.9994 13.1093 29.9994C13.3222 29.9994 13.5327 29.9309 13.7082 29.8001L16.1663 27.9535C16.3867 27.9622 16.6083 27.9622 16.8275 27.9535L19.2855 29.8001C19.5309 29.9844 19.8471 30.0454 20.1435 29.9657C21.2978 29.6544 22.4085 29.1937 23.4446 28.5973C23.7098 28.4441 23.8903 28.1776 23.9339 27.875L24.371 24.8155C24.5217 24.6674 24.6811 24.5055 24.8081 24.376L27.87 23.9389C28.1726 23.8953 28.4391 23.716 28.5923 23.4508C29.1912 22.4148 29.6519 21.3028 29.962 20.1472C30.0417 19.8509 29.9807 19.5358 29.7964 19.2905L29.7976 19.2893ZM27.098 22.035L24.1904 22.4509C23.97 22.482 23.7671 22.5866 23.6127 22.7472C23.4558 22.9104 22.9975 23.3823 22.7609 23.6002C22.5916 23.7559 22.482 23.9651 22.4496 24.1917L22.035 27.0993C21.4111 27.4255 20.7586 27.6957 20.0875 27.9074L17.734 26.1392C17.5373 25.991 17.2932 25.9225 17.0479 25.9437C16.6843 25.9761 16.317 25.9761 15.9534 25.9437C15.708 25.9225 15.464 25.9923 15.2672 26.1392L12.9138 27.9074C12.2426 27.697 11.5901 27.4267 10.9675 27.1005L10.5516 24.1929C10.5192 23.97 10.4134 23.7646 10.2503 23.6102C9.9564 23.3325 9.66751 23.0436 9.39232 22.7522C9.23791 22.5891 9.03245 22.482 8.80956 22.4509L5.90199 22.0362C5.57574 21.4124 5.30553 20.7599 5.09384 20.0887L6.86205 17.7353C7.00026 17.551 7.07124 17.3231 7.06128 17.0927C7.04758 16.7914 7.03513 16.2148 7.05879 15.9546C7.07996 15.7093 7.01023 15.4652 6.86329 15.2685L5.09509 12.915C5.30553 12.2439 5.57574 11.5914 5.90199 10.9688L8.80956 10.5529C9.03245 10.5205 9.23791 10.4146 9.39232 10.2515C9.66876 9.95889 9.95765 9.67125 10.2503 9.39357C10.4134 9.23916 10.5205 9.0337 10.5516 8.81081L10.9675 5.90323C11.5914 5.57699 12.2439 5.30677 12.915 5.09509L15.2685 6.86329C15.4652 7.01147 15.7093 7.0812 15.9546 7.05879C16.3182 7.02641 16.6855 7.02641 17.0491 7.05879C17.2944 7.0812 17.5385 7.01023 17.7353 6.86329L20.09 5.09509C20.7611 5.30553 21.4136 5.57574 22.0362 5.90199L22.4521 8.80956C22.4845 9.03743 22.5941 9.24539 22.7634 9.40104C23.0573 9.67125 23.3387 9.95391 23.6015 10.2391C23.7571 10.4084 23.9663 10.5192 24.1942 10.5516L27.1018 10.9675C27.428 11.5914 27.6982 12.2439 27.9099 12.915L26.1417 15.2685C26.0035 15.4528 25.9325 15.6806 25.9425 15.911C25.9562 16.2124 25.9686 16.7889 25.9449 17.0491C25.9238 17.2944 25.9935 17.5385 26.1404 17.7353L27.9086 20.09C27.6982 20.7611 27.428 21.4136 27.1018 22.0362L27.098 22.035Z" fill="#0A0132"/>
</svg>
