<svg width="32" height="32" viewBox="0 0 32 32" fill="none" xmlns="http://www.w3.org/2000/svg">
<path fill-rule="evenodd" clip-rule="evenodd" d="M13.5 6C9.91015 6 7 8.91015 7 12.5C7 16.0899 9.91015 19 13.5 19C17.0899 19 20 16.0899 20 12.5C20 8.91015 17.0899 6 13.5 6ZM5 12.5C5 7.80558 8.80558 4 13.5 4C18.1944 4 22 7.80558 22 12.5C22 17.1944 18.1944 21 13.5 21C8.80558 21 5 17.1944 5 12.5Z" fill="#0A0132"/>
<path fill-rule="evenodd" clip-rule="evenodd" d="M13.4999 20.9985C11.6015 20.9985 9.72616 21.4143 8.00564 22.2167C6.28512 23.019 4.7612 24.1884 3.541 25.6427C3.18601 26.0658 2.55526 26.121 2.13217 25.766C1.70908 25.411 1.65387 24.7803 2.00885 24.3572C3.41679 22.6792 5.17515 21.3298 7.16037 20.4041C9.14558 19.4783 11.3095 18.9985 13.4999 18.9985C15.6904 18.9985 17.8543 19.4783 19.8395 20.4041C21.8247 21.3298 23.5831 22.6792 24.991 24.3572C25.346 24.7803 25.2908 25.411 24.8677 25.766C24.4446 26.121 23.8138 26.0658 23.4589 25.6427C22.2386 24.1884 20.7147 23.019 18.9942 22.2167C17.2737 21.4143 15.3983 20.9985 13.4999 20.9985Z" fill="#0A0132"/>
<path fill-rule="evenodd" clip-rule="evenodd" d="M27.5 16C26.9477 16 26.5 16.4477 26.5 17C26.5 17.5523 26.9477 18 27.5 18C28.0523 18 28.5 17.5523 28.5 17C28.5 16.4477 28.0523 16 27.5 16ZM24.5 17C24.5 15.3431 25.8431 14 27.5 14C29.1569 14 30.5 15.3431 30.5 17C30.5 18.6569 29.1569 20 27.5 20C25.8431 20 24.5 18.6569 24.5 17Z" fill="#0A0132"/>
<path fill-rule="evenodd" clip-rule="evenodd" d="M27.5 12.5C28.0523 12.5 28.5 12.9477 28.5 13.5V15C28.5 15.5523 28.0523 16 27.5 16C26.9477 16 26.5 15.5523 26.5 15V13.5C26.5 12.9477 26.9477 12.5 27.5 12.5Z" fill="#0A0132"/>
<path fill-rule="evenodd" clip-rule="evenodd" d="M23.6107 14.7466C23.8887 14.2694 24.5009 14.1078 24.9781 14.3858L26.2656 15.1358C26.7428 15.4138 26.9043 16.026 26.6264 16.5033C26.3484 16.9805 25.7361 17.142 25.2589 16.864L23.9714 16.114C23.4942 15.836 23.3327 15.2238 23.6107 14.7466Z" fill="#0A0132"/>
<path fill-rule="evenodd" clip-rule="evenodd" d="M26.6264 17.4966C26.9043 17.9738 26.7428 18.586 26.2656 18.864L24.9781 19.614C24.5009 19.892 23.8887 19.7305 23.6107 19.2533C23.3327 18.776 23.4942 18.1638 23.9714 17.8858L25.2589 17.1358C25.7361 16.8578 26.3484 17.0194 26.6264 17.4966Z" fill="#0A0132"/>
<path fill-rule="evenodd" clip-rule="evenodd" d="M27.5 18C28.0523 18 28.5 18.4477 28.5 19V20.5C28.5 21.0523 28.0523 21.5 27.5 21.5C26.9477 21.5 26.5 21.0523 26.5 20.5V19C26.5 18.4477 26.9477 18 27.5 18Z" fill="#0A0132"/>
<path fill-rule="evenodd" clip-rule="evenodd" d="M28.3734 17.4966C28.6514 17.0194 29.2636 16.8578 29.7408 17.1358L31.0283 17.8858C31.5055 18.1638 31.667 18.776 31.3891 19.2533C31.1111 19.7305 30.4988 19.892 30.0216 19.614L28.7341 18.864C28.2569 18.586 28.0954 17.9738 28.3734 17.4966Z" fill="#0A0132"/>
<path fill-rule="evenodd" clip-rule="evenodd" d="M31.3891 14.7466C31.667 15.2238 31.5055 15.836 31.0283 16.114L29.7408 16.864C29.2636 17.142 28.6514 16.9805 28.3734 16.5033C28.0954 16.026 28.2569 15.4138 28.7341 15.1358L30.0216 14.3858C30.4988 14.1078 31.1111 14.2694 31.3891 14.7466Z" fill="#0A0132"/>
</svg>
